<?xml version="1.0" encoding="utf-8"?>
<!-- Generator: Adobe Illustrator 19.0.0, SVG Export Plug-In . SVG Version: 6.00 Build 0)  -->
<svg version="1.1" id="Layer_2" xmlns="http://www.w3.org/2000/svg" xmlns:xlink="http://www.w3.org/1999/xlink" x="0px" y="0px"
	 width="100px" height="100px" viewBox="-256 379.9 100 100" style="enable-background:new -256 379.9 100 100;"
	 xml:space="preserve">
<g>
	<path d="M-251.5,419.9L-251.5,419.9c0,1.4,1.1,2.5,2.5,2.5h86c1.4,0,2.5-1.1,2.5-2.5l0,0c0-1.4-1.1-2.5-2.5-2.5h-86
		C-250.4,417.4-251.5,418.5-251.5,419.9z"/>
	<path d="M-249,442.4h86c1.4,0,2.5-1.1,2.5-2.5l0,0c0-1.4-1.1-2.5-2.5-2.5h-86c-1.4,0-2.5,1.1-2.5,2.5l0,0
		C-251.5,441.3-250.4,442.4-249,442.4z"/>
</g>
</svg>
