<?xml version="1.0" encoding="utf-8"?>
<!-- Generator: Adobe Illustrator 19.0.0, SVG Export Plug-In . SVG Version: 6.00 Build 0)  -->
<svg version="1.1" id="Layer_1" xmlns="http://www.w3.org/2000/svg" xmlns:xlink="http://www.w3.org/1999/xlink" x="0px" y="0px"
	 width="100px" height="100px" viewBox="-256 379.9 100 100" style="enable-background:new -256 379.9 100 100;"
	 xml:space="preserve">
<g>
	<path d="M-176.5,427.4h-5.4c-0.8,0-1.4,0.6-1.4,1.4v2.2c0,0.8,0.6,1.4,1.4,1.4h5.4c0.8,0,1.4-0.6,1.4-1.4v-2.2
		C-175.1,428-175.7,427.4-176.5,427.4z"/>
	<path d="M-194.3,427.4h-5.4c-0.8,0-1.4,0.6-1.4,1.4v2.2c0,0.8,0.6,1.4,1.4,1.4h5.4c0.8,0,1.4-0.6,1.4-1.4v-2.2
		C-193,428-193.6,427.4-194.3,427.4z"/>
	<path d="M-212.2,427.4h-5.4c-0.8,0-1.4,0.6-1.4,1.4v2.2c0,0.8,0.6,1.4,1.4,1.4h5.4c0.8,0,1.4-0.6,1.4-1.4v-2.2
		C-210.8,428-211.4,427.4-212.2,427.4z"/>
	<path d="M-230.1,427.4h-5.4c-0.8,0-1.4,0.6-1.4,1.4v2.2c0,0.8,0.6,1.4,1.4,1.4h5.4c0.8,0,1.4-0.6,1.4-1.4v-2.2
		C-228.7,428-229.3,427.4-230.1,427.4z"/>
	<path d="M-247.9,427.4h-5.4c-0.8,0-1.4,0.6-1.4,1.4v2.2c0,0.8,0.6,1.4,1.4,1.4h5.4c0.8,0,1.4-0.6,1.4-1.4v-2.2
		C-246.6,428-247.2,427.4-247.9,427.4z"/>
	<path d="M-158.6,427.4h-5.4c-0.8,0-1.4,0.6-1.4,1.4v2.2c0,0.8,0.6,1.4,1.4,1.4h5.4c0.8,0,1.4-0.6,1.4-1.4v-2.2
		C-157.2,428-157.8,427.4-158.6,427.4z"/>
</g>
</svg>
