<?xml version="1.0" encoding="utf-8"?>
<!-- Generator: Adobe Illustrator 19.0.0, SVG Export Plug-In . SVG Version: 6.00 Build 0)  -->
<svg version="1.1" id="Layer_1" xmlns="http://www.w3.org/2000/svg" xmlns:xlink="http://www.w3.org/1999/xlink" x="0px" y="0px"
	 width="100px" height="100px" viewBox="-256 379.9 100 100" style="enable-background:new -256 379.9 100 100;"
	 xml:space="preserve">
<g>
	<path d="M-168.1,427.4h-3.2c-0.6,0-1,0.4-1,1v3c0,0.6,0.4,1,1,1h3.2c0.6,0,1-0.4,1-1v-3C-167.1,427.8-167.5,427.4-168.1,427.4z"/>
	<path d="M-178.4,427.4h-3.2c-0.6,0-1,0.4-1,1v3c0,0.6,0.4,1,1,1h3.2c0.6,0,1-0.4,1-1v-3C-177.4,427.8-177.9,427.4-178.4,427.4z"/>
	<path d="M-188.8,427.4h-3.2c-0.6,0-1,0.4-1,1v3c0,0.6,0.4,1,1,1h3.2c0.6,0,1-0.4,1-1v-3C-187.8,427.8-188.3,427.4-188.8,427.4z"/>
	<path d="M-199.2,427.4h-3.2c-0.6,0-1,0.4-1,1v3c0,0.6,0.4,1,1,1h3.2c0.6,0,1-0.4,1-1v-3C-198.2,427.8-198.7,427.4-199.2,427.4z"/>
	<path d="M-209.6,427.4h-3.2c-0.6,0-1,0.4-1,1v3c0,0.6,0.4,1,1,1h3.2c0.6,0,1-0.4,1-1v-3C-208.6,427.8-209,427.4-209.6,427.4z"/>
	<path d="M-220,427.4h-3.2c-0.6,0-1,0.4-1,1v3c0,0.6,0.4,1,1,1h3.2c0.6,0,1-0.4,1-1v-3C-219,427.8-219.4,427.4-220,427.4z"/>
	<path d="M-230.3,427.4h-3.2c-0.6,0-1,0.4-1,1v3c0,0.6,0.4,1,1,1h3.2c0.6,0,1-0.4,1-1v-3C-229.3,427.8-229.8,427.4-230.3,427.4z"/>
	<path d="M-240.7,427.4h-3.2c-0.6,0-1,0.4-1,1v3c0,0.6,0.4,1,1,1h3.2c0.6,0,1-0.4,1-1v-3C-239.7,427.8-240.2,427.4-240.7,427.4z"/>
	<path d="M-157.7,427.4h-3.2c-0.6,0-1,0.4-1,1v3c0,0.6,0.4,1,1,1h3.2c0.6,0,1-0.4,1-1v-3C-156.7,427.8-157.1,427.4-157.7,427.4z"/>
	<path d="M-251.1,427.4h-3.2c-0.6,0-1,0.4-1,1v3c0,0.6,0.4,1,1,1h3.2c0.6,0,1-0.4,1-1v-3C-250.1,427.8-250.5,427.4-251.1,427.4z"/>
</g>
</svg>
